<svg xmlns="http://www.w3.org/2000/svg" width="40.964" height="44.611" viewBox="0 0 40.964 44.611"><g transform="translate(0)"><g transform="translate(-0.345 0.087)"><g transform="matrix(0.995, -0.105, 0.105, 0.995, 0.551, 8.164)" fill="#9b7d53"><path d="M 30.49943161010742 36.33935928344727 L 30.49770164489746 36.33935928344727 L 1.259591579437256 36.25334930419922 C 0.9682915806770325 36.25249099731445 0.7300315499305725 36.03253936767578 0.7284815907478333 35.7630500793457 L 0.5270315408706665 0.9534397125244141 C 0.5263215899467468 0.8313797116279602 0.5748615860939026 0.7149497270584106 0.6637015342712402 0.6255897283554077 C 0.7630815505981445 0.5256397128105164 0.8990015387535095 0.4705896973609924 1.046421527862549 0.4705896973609924 L 30.28625106811523 0.5565996766090393 C 30.57755088806152 0.5574597120285034 30.81581115722656 0.7774097323417664 30.81736183166504 1.046909689903259 L 31.01882171630859 35.85652160644531 C 31.01953125 35.97856903076172 30.97098159790039 36.09500885009766 30.88214111328125 36.18436050415039 C 30.78276062011719 36.28432083129883 30.64685249328613 36.33935928344727 30.49943161010742 36.33935928344727 Z" stroke="none"/><path d="M 1.046421051025391 0.7205886840820313 C 0.9660511016845703 0.7205886840820313 0.8930912017822266 0.74945068359375 0.8409824371337891 0.8018608093261719 C 0.8115806579589844 0.8314399719238281 0.776611328125 0.8814888000488281 0.7770214080810547 0.9519996643066406 L 0.9784717559814453 35.76160049438477 C 0.9792308807373047 35.89218902587891 1.108301162719727 36.00289916992188 1.260320663452148 36.00334930419922 L 30.49943161010742 36.08935928344727 C 30.57980155944824 36.08935928344727 30.65275192260742 36.06050109863281 30.70486068725586 36.00809097290039 C 30.73426246643066 35.97851943969727 30.76923179626465 35.92845916748047 30.76882171630859 35.85794830322266 L 30.5673713684082 1.048351287841797 C 30.56661224365234 0.9177513122558594 30.43754196166992 0.8070411682128906 30.2855224609375 0.8065986633300781 L 1.048881530761719 0.7205886840820313 L 1.046421051025391 0.7205886840820313 M 1.046426773071289 0.2205848693847656 C 1.047262191772461 0.2205848693847656 1.048044204711914 0.2205886840820313 1.048881530761719 0.2205886840820313 L 30.28699111938477 0.3065986633300781 C 30.71562194824219 0.307861328125 31.06501197814941 0.6386604309082031 31.06736183166504 1.045459747314453 L 31.26881217956543 35.85506057739258 C 31.27115631103516 36.26106643676758 30.92690467834473 36.58936309814453 30.49943733215332 36.58936309814453 C 30.49860000610352 36.58936309814453 30.49779891967773 36.58936309814453 30.49696159362793 36.58935928344727 L 1.258852005004883 36.50334930419922 C 0.8302211761474609 36.50207901000977 0.4808311462402344 36.17127990722656 0.4784812927246094 35.76448822021484 L 0.2770309448242188 0.9548912048339844 C 0.2746868133544922 0.5488853454589844 0.6189479827880859 0.2205848693847656 1.046426773071289 0.2205848693847656 Z" stroke="none" fill="#dfdfdf"/></g><g transform="matrix(0.995, -0.105, 0.105, 0.995, 0.286, 3.071)"><path d="M 30.58086585998535 9.090239524841309 L 0.3091681301593781 8.578296661376953 L 0.303310364484787 7.66253662109375 C 0.2871303558349609 5.131006717681885 1.082660317420959 2.809286832809448 2.431350469589233 1.451936721801758 C 3.170290470123291 0.7082667350769043 4.027490139007568 0.3151767253875732 4.910280227661133 0.3151767253875732 C 4.927380561828613 0.3151767253875732 4.944210529327393 0.3153167068958282 4.961350440979004 0.3156067132949829 L 25.81031036376953 0.6681967377662659 C 28.41138076782227 0.7121866941452026 30.54885101318359 4.084716796875 30.5750904083252 8.186136245727539 L 30.58086585998535 9.090239524841309 Z" stroke="none"/><path d="M 4.910280227661133 0.5651769638061523 C 4.095541000366211 0.5651769638061523 3.299659729003906 0.9327468872070313 2.60869026184082 1.628146648406982 C 1.305900573730469 2.939296722412109 0.5375404357910156 5.194546699523926 0.5533103942871094 7.660936832427979 L 0.5576057434082031 8.332456588745117 L 30.32923126220703 8.835943222045898 L 30.3250904083252 8.187736511230469 C 30.31256103515625 6.229557037353516 29.8125 4.386736869812012 28.91703033447266 2.998756885528564 C 28.06400108337402 1.676566600799561 26.95918083190918 0.9376668930053711 25.80609130859375 0.9181671142578125 L 4.957229614257813 0.5655765533447266 C 4.941471099853516 0.5653171539306641 4.926000595092773 0.5651769638061523 4.910280227661133 0.5651769638061523 M 4.9102783203125 0.06517887115478516 C 4.928792953491211 0.06517887115478516 4.947015762329102 0.06533241271972656 4.965579986572266 0.06564712524414063 L 25.81454086303711 0.4182367324829102 C 28.55464935302734 0.4645767211914063 30.79794120788574 3.941666603088379 30.82508087158203 8.184536933898926 L 30.83249092102051 9.344526290893555 L 0.06073951721191406 8.824127197265625 L 0.05331993103027344 7.66413688659668 C 0.02637481689453125 3.450011730194092 2.196098327636719 0.06517887115478516 4.9102783203125 0.06517887115478516 Z" stroke="none" fill="#dfdfdf"/></g></g><g transform="translate(29.068 36.962)"><g transform="translate(0 0.074)"><path d="M4.9.013A14.5,14.5,0,0,0,1.236.7C.575,1.151-.227,3.648.06,3.758s3.915.076,3.915.076a2,2,0,0,0,.828-.2.762.762,0,0,0,.214-.474A23.937,23.937,0,0,0,4.9.013Z" transform="matrix(0.995, -0.105, 0.105, 0.995, 0, 0.525)" fill="#9b7d53"/></g><path d="M.125,4.176a14.066,14.066,0,0,0,3.5-1.649,5.567,5.567,0,0,0,1.8-2.555" transform="matrix(0.995, -0.105, 0.105, 0.995, -0.057, 0.594)" fill="#514637" stroke="#dfdfdf" strokeWidth="0.5"/></g><g transform="translate(6.12 13.004)"><g transform="translate(0)"><line x2="21.887" y2="0.032" transform="matrix(0.995, -0.105, 0.105, 0.995, 0, 2.255)" fill="none" stroke="#dfdfdf" strokeWidth="1"/><line x2="21.887" y2="0.032" transform="matrix(0.995, -0.105, 0.105, 0.995, 0.32, 5.26)" fill="none" stroke="#dfdfdf" strokeWidth="1"/><line x2="21.887" y2="0.032" transform="matrix(0.995, -0.105, 0.105, 0.995, 0.641, 8.264)" fill="none" stroke="#dfdfdf" strokeWidth="1"/><line x2="8.755" y2="0.013" transform="matrix(0.995, -0.105, 0.105, 0.995, 0.961, 11.268)" fill="none" stroke="#dfdfdf" strokeWidth="1"/></g><line x2="21.887" y2="0.032" transform="matrix(0.995, -0.105, 0.105, 0.995, 2.149, 25.275)" fill="none" stroke="#dfdfdf" strokeWidth="1"/><g transform="translate(6.413 14.819)"><line x2="8.755" y2="0.013" transform="matrix(0.995, -0.105, 0.105, 0.995, 0, 0.902)" fill="none" stroke="#dfdfdf" strokeWidth="1"/><line x2="8.755" y2="0.013" transform="matrix(0.995, -0.105, 0.105, 0.995, 0.275, 3.477)" fill="none" stroke="#dfdfdf" strokeWidth="1"/><line x2="8.755" y2="0.013" transform="matrix(0.995, -0.105, 0.105, 0.995, 0.549, 6.052)" fill="none" stroke="#dfdfdf" strokeWidth="1"/></g><g transform="translate(3.468 14.761)"><g transform="matrix(0.995, -0.105, 0.105, 0.995, 0.275, 2.755)" fill="none" stroke="#dfdfdf" strokeWidth="1"><rect width="1.754" height="1.729" stroke="none"/><rect x="0.5" y="0.5" width="0.754" height="0.729" fill="none"/></g><g transform="matrix(0.995, -0.105, 0.105, 0.995, 0, 0.18)" fill="none" stroke="#dfdfdf" strokeWidth="1"><rect width="1.754" height="1.729" stroke="none"/><rect x="0.5" y="0.5" width="0.754" height="0.729" fill="none"/></g><g transform="matrix(0.995, -0.105, 0.105, 0.995, 0.549, 5.331)" fill="none" stroke="#dfdfdf" strokeWidth="1"><rect width="1.754" height="1.729" stroke="none"/><rect x="0.5" y="0.5" width="0.754" height="0.729" fill="none"/></g></g></g><g transform="translate(23.748 4.72)"><g transform="translate(-0.008 1.913)"><g transform="translate(12.025 0) rotate(27)" fill="#514637" stroke="#dfdfdf" strokeWidth="1"><rect width="4.549" height="26.487" stroke="none"/><rect x="0.5" y="0.5" width="3.549" height="25.487" fill="none"/></g><line x1="12.574" y2="24.012" transform="translate(1.868 0.61)" fill="none" stroke="#dfdfdf" strokeWidth="1"/></g><g transform="translate(11.955)"><g transform="translate(1.051 0) rotate(27)" fill="rgba(0,0,0,0.9)" stroke="#dfdfdf" strokeWidth="1"><rect width="4.696" height="2.26" stroke="none"/><rect x="0.5" y="0.5" width="3.696" height="1.26" fill="none"/></g></g><g transform="translate(-0.013 25.581)"><path d="M181.171,554.353l.1,4.436,3.859-2.44Z" transform="translate(-181.171 -554.353)" fill="rgba(0,0,0,0.9)" stroke="#dfdfdf" strokeWidth="1"/></g></g></g></svg>