<svg xmlns="http://www.w3.org/2000/svg" width="260.919" height="265.687" viewBox="0 0 260.919 265.687"><g transform="translate(33.841 67.495)"><g transform="translate(-39.852 -220.417)"><line x2="140.902" transform="matrix(0.995, -0.105, 0.105, 0.995, 39.852, 235.145)" fill="none" stroke="#000" stroke-width="1"/><line x2="140.902" transform="matrix(0.995, -0.105, 0.105, 0.995, 41.914, 254.764)" fill="none" stroke="#000" stroke-width="1"/><line x2="140.902" transform="matrix(0.995, -0.105, 0.105, 0.995, 43.976, 274.382)" fill="none" stroke="#000" stroke-width="1"/><line x2="56.361" transform="matrix(0.995, -0.105, 0.105, 0.995, 46.037, 294)" fill="none" stroke="#000" stroke-width="1"/></g><line x2="140.902" transform="matrix(0.995, -0.105, 0.105, 0.995, 13.831, 165.046)" fill="none" stroke="#000" stroke-width="1"/><g transform="translate(-39.852 -220.417)"><line x2="56.361" transform="matrix(0.995, -0.105, 0.105, 0.995, 81.128, 323.074)" fill="none" stroke="#000" stroke-width="1"/><line x2="56.361" transform="matrix(0.995, -0.105, 0.105, 0.995, 82.896, 339.89)" fill="none" stroke="#000" stroke-width="1"/><line x2="56.361" transform="matrix(0.995, -0.105, 0.105, 0.995, 84.663, 356.705)" fill="none" stroke="#000" stroke-width="1"/></g><g transform="translate(-39.852 -220.417)"><g transform="matrix(0.995, -0.105, 0.105, 0.995, 63.942, 334.798)" fill="#fff" stroke="#000" stroke-width="1"><rect width="11.272" height="11.272" stroke="none"/><rect x="0.5" y="0.5" width="10.272" height="10.272" fill="none"/></g><g transform="matrix(0.995, -0.105, 0.105, 0.995, 62.175, 317.982)" fill="#fff" stroke="#000" stroke-width="1"><rect width="11.272" height="11.272" stroke="none"/><rect x="0.5" y="0.5" width="10.272" height="10.272" fill="none"/></g><g transform="matrix(0.995, -0.105, 0.105, 0.995, 65.71, 351.613)" fill="#fff" stroke="#000" stroke-width="1"><rect width="11.272" height="11.272" stroke="none"/><rect x="0.5" y="0.5" width="10.272" height="10.272" fill="none"/></g></g></g><g transform="matrix(0.995, -0.105, 0.105, 0.995, 0, 20.744)" fill="none" stroke="#000" stroke-width="1"><rect width="198.362" height="246.292" rx="5" stroke="none"/><rect x="0.5" y="0.5" width="197.362" height="245.292" rx="4.5" fill="none"/></g><g transform="matrix(0.995, -0.105, 0.105, 0.995, 0, 20.744)" fill="none" stroke="#000" stroke-width="1"><path d="M5,0H193.457a5,5,0,0,1,5,5V35.9a0,0,0,0,1,0,0H0a0,0,0,0,1,0,0V5A5,5,0,0,1,5,0Z" stroke="none"/><path d="M5,.5H193.457a4.5,4.5,0,0,1,4.5,4.5V34.9a.5.5,0,0,1-.5.5H1a.5.5,0,0,1-.5-.5V5A4.5,4.5,0,0,1,5,.5Z" fill="none"/></g><g transform="translate(194.425 218.25)"><path d="M25.178.072C24.521-.537,10.061,2.864,6.64,5.145,3.251,8.27-1.151,25.031.276,25.721s19.672-.04,19.672-.04,3.256-.34,4.191-1.473a6.3,6.3,0,0,0,1.144-3.193C25.321,20.635,25.834.681,25.178.072Z" transform="matrix(0.995, -0.105, 0.105, 0.995, 0, 2.666)" fill="none" stroke="#000" stroke-width="1"/><path d="M0,25.184S10.172,21.748,16.232,15.5,24.648,0,24.648,0" transform="matrix(0.995, -0.105, 0.105, 0.995, 0.361, 3.023)" fill="none" stroke="#000" stroke-width="1"/></g><g transform="translate(151.638 23.157)"><g transform="translate(0 12.208)"><g transform="translate(76.594 0) rotate(27)" fill="#fff" stroke="#000" stroke-width="1"><rect width="29.705" height="168.712" stroke="none"/><rect x="0.5" y="0.5" width="28.705" height="167.712" fill="none"/></g><line x1="78.125" y2="149.939" transform="translate(12.727 7.212)" fill="none" stroke="#000" stroke-width="1"/></g><g transform="translate(76.205)"><g transform="translate(6.609 0) rotate(27)" fill="none" stroke="#000" stroke-width="1"><rect width="29.705" height="14.558" stroke="none"/><rect x="0.5" y="0.5" width="28.705" height="13.558" fill="none"/></g></g><g transform="translate(0.523 163.273)"><path d="M181.171,554.353l.639,28.313,24.358-15.573Z" transform="translate(-181.171 -554.353)" fill="none" stroke="#000" stroke-width="1"/></g></g><g transform="matrix(0.995, -0.105, 0.105, 0.995, 0, 20.744)" fill="none" stroke="#000" stroke-width="1"><rect width="198.362" height="246.292" rx="5" stroke="none"/><rect x="0.5" y="0.5" width="197.362" height="245.292" rx="4.5" fill="none"/></g><g transform="matrix(0.995, -0.105, 0.105, 0.995, 0, 20.744)" fill="none" stroke="#000" stroke-width="1"><path d="M5,0H193.457a5,5,0,0,1,5,5V35.9a0,0,0,0,1,0,0H0a0,0,0,0,1,0,0V5A5,5,0,0,1,5,0Z" stroke="none"/><path d="M5,.5H193.457a4.5,4.5,0,0,1,4.5,4.5V34.9a.5.5,0,0,1-.5.5H1a.5.5,0,0,1-.5-.5V5A4.5,4.5,0,0,1,5,.5Z" fill="none"/></g><g transform="translate(194.425 218.25)"><path d="M25.178.072C24.521-.537,10.061,2.864,6.64,5.145,3.251,8.27-1.151,25.031.276,25.721s19.672-.04,19.672-.04,3.256-.34,4.191-1.473a6.3,6.3,0,0,0,1.144-3.193C25.321,20.635,25.834.681,25.178.072Z" transform="matrix(0.995, -0.105, 0.105, 0.995, 0, 2.666)" fill="none" stroke="#000" stroke-width="1"/><path d="M0,25.184S10.172,21.748,16.232,15.5,24.648,0,24.648,0" transform="matrix(0.995, -0.105, 0.105, 0.995, 0.361, 3.023)" fill="none" stroke="#000" stroke-width="1"/></g><g transform="translate(151.638 23.157)"><g transform="translate(0 12.208)"><g transform="translate(76.594 0) rotate(27)" fill="#fff" stroke="#000" stroke-width="1"><rect width="29.705" height="168.712" stroke="none"/><rect x="0.5" y="0.5" width="28.705" height="167.712" fill="none"/></g><line x1="78.125" y2="149.939" transform="translate(12.727 7.212)" fill="none" stroke="#000" stroke-width="1"/></g><g transform="translate(76.205)"><g transform="translate(6.609 0) rotate(27)" fill="none" stroke="#000" stroke-width="1"><rect width="29.705" height="14.558" stroke="none"/><rect x="0.5" y="0.5" width="28.705" height="13.558" fill="none"/></g></g><g transform="translate(0.523 163.273)"><path d="M181.171,554.353l.639,28.313,24.358-15.573Z" transform="translate(-181.171 -554.353)" fill="none" stroke="#000" stroke-width="1"/></g></g></svg>