<svg xmlns="http://www.w3.org/2000/svg" width="259.282" height="265.687" viewBox="0 0 259.282 265.687"><g transform="translate(-1818 0)"><g transform="translate(1818 0)"><g transform="translate(0 0)"><g transform="matrix(0.995, -0.105, 0.105, 0.995, 0, 20.744)" fill="#f2d4ae"><path d="M 193.3622436523438 245.7922515869141 L 4.999989032745361 245.7922515869141 C 2.5186767578125 245.7922515869141 0.4999892115592957 243.7735595703125 0.4999892115592957 241.2922515869141 L 0.4999892115592957 5.000000953674316 C 0.4999892115592957 2.518688201904297 2.5186767578125 0.5000007748603821 4.999989032745361 0.5000007748603821 L 193.3622436523438 0.5000007748603821 C 195.8435516357422 0.5000007748603821 197.8622436523438 2.518688201904297 197.8622436523438 5.000000953674316 L 197.8622436523438 241.2922515869141 C 197.8622436523438 243.7735595703125 195.8435516357422 245.7922515869141 193.3622436523438 245.7922515869141 Z" stroke="none"/><path d="M 4.999984741210938 1 C 2.794387817382813 1 0.9999847412109375 2.794403076171875 0.9999847412109375 5 L 0.9999847412109375 241.2922515869141 C 0.9999847412109375 243.4978485107422 2.794387817382813 245.2922515869141 4.999984741210938 245.2922515869141 L 193.3622436523438 245.2922515869141 C 195.5678405761719 245.2922515869141 197.3622436523438 243.4978485107422 197.3622436523438 241.2922515869141 L 197.3622436523438 5 C 197.3622436523438 2.794403076171875 195.5678405761719 1 193.3622436523438 1 L 4.999984741210938 1 M 4.999984741210938 0 L 193.3622436523438 0 C 196.1236419677734 0 198.3622436523438 2.238555908203125 198.3622436523438 5 L 198.3622436523438 241.2922515869141 C 198.3622436523438 244.0536956787109 196.1236419677734 246.2922515869141 193.3622436523438 246.2922515869141 L 4.999984741210938 246.2922515869141 C 2.238555908203125 246.2922515869141 -1.52587890625e-05 244.0536956787109 -1.52587890625e-05 241.2922515869141 L -1.52587890625e-05 5 C -1.52587890625e-05 2.238555908203125 2.238555908203125 0 4.999984741210938 0 Z" stroke="none"/></g><g transform="matrix(0.995, -0.105, 0.105, 0.995, 0, 20.744)" fill="#402b18" stroke="#000" stroke-width="1"><path d="M5,0H193.457a5,5,0,0,1,5,5V35.9a0,0,0,0,1,0,0H0a0,0,0,0,1,0,0V5A5,5,0,0,1,5,0Z" stroke="none"/><path d="M5,.5H193.457a4.5,4.5,0,0,1,4.5,4.5V34.9a.5.5,0,0,1-.5.5H1a.5.5,0,0,1-.5-.5V5A4.5,4.5,0,0,1,5,.5Z" fill="none"/></g></g><g transform="translate(194.425 218.25)"><path d="M25.178.072C24.521-.537,10.061,2.864,6.64,5.145,3.251,8.27-1.151,25.031.276,25.721s19.672-.04,19.672-.04,3.256-.34,4.191-1.473a6.3,6.3,0,0,0,1.144-3.193C25.321,20.635,25.834.681,25.178.072Z" transform="matrix(0.995, -0.105, 0.105, 0.995, 0, 2.666)" fill="#f2d4ae"/><path d="M0,25.184S10.172,21.748,16.232,15.5,24.648,0,24.648,0" transform="matrix(0.995, -0.105, 0.105, 0.995, 0.361, 3.023)" fill="#bf9e75" stroke="#000" stroke-width="1"/></g></g><g transform="translate(1853 67)"><g transform="translate(-39.852 -220.417)"><line x2="140.902" transform="matrix(0.995, -0.105, 0.105, 0.995, 39.852, 235.145)" fill="none" stroke="#000" stroke-width="1"/><line x2="140.902" transform="matrix(0.995, -0.105, 0.105, 0.995, 41.914, 254.764)" fill="none" stroke="#000" stroke-width="1"/><line x2="140.902" transform="matrix(0.995, -0.105, 0.105, 0.995, 43.976, 274.382)" fill="none" stroke="#000" stroke-width="1"/><line x2="56.361" transform="matrix(0.995, -0.105, 0.105, 0.995, 46.037, 294)" fill="none" stroke="#000" stroke-width="1"/></g><line x2="140.902" transform="matrix(0.995, -0.105, 0.105, 0.995, 13.831, 165.046)" fill="none" stroke="#000" stroke-width="1"/><g transform="translate(-39.852 -220.417)"><line x2="56.361" transform="matrix(0.995, -0.105, 0.105, 0.995, 81.128, 323.074)" fill="none" stroke="#000" stroke-width="1"/><line x2="56.361" transform="matrix(0.995, -0.105, 0.105, 0.995, 82.896, 339.89)" fill="none" stroke="#000" stroke-width="1"/><line x2="56.361" transform="matrix(0.995, -0.105, 0.105, 0.995, 84.663, 356.705)" fill="none" stroke="#000" stroke-width="1"/></g><g transform="translate(-39.852 -220.417)"><g transform="matrix(0.995, -0.105, 0.105, 0.995, 63.942, 334.798)" fill="none" stroke="#000" stroke-width="1"><rect width="11.272" height="11.272" stroke="none"/><rect x="0.5" y="0.5" width="10.272" height="10.272" fill="none"/></g><g transform="matrix(0.995, -0.105, 0.105, 0.995, 62.175, 317.982)" fill="none" stroke="#000" stroke-width="1"><rect width="11.272" height="11.272" stroke="none"/><rect x="0.5" y="0.5" width="10.272" height="10.272" fill="none"/></g><g transform="matrix(0.995, -0.105, 0.105, 0.995, 65.71, 351.613)" fill="none" stroke="#000" stroke-width="1"><rect width="11.272" height="11.272" stroke="none"/><rect x="0.5" y="0.5" width="10.272" height="10.272" fill="none"/></g></g></g><g transform="translate(1968 19)"><g transform="translate(0 12.208)"><g transform="translate(76.594 0) rotate(27)" fill="#bf9e75" stroke="#000" stroke-width="1"><rect width="29.705" height="168.712" stroke="none"/><rect x="0.5" y="0.5" width="28.705" height="167.712" fill="none"/></g><line x1="78.125" y2="149.939" transform="translate(12.727 7.212)" fill="none" stroke="#000" stroke-width="1"/></g><g transform="translate(76.205)"><g transform="translate(6.609 0) rotate(27)" fill="#402b18" stroke="#000" stroke-width="1"><rect width="29.705" height="14.558" stroke="none"/><rect x="0.5" y="0.5" width="28.705" height="13.558" fill="none"/></g></g><g transform="translate(0.523 163.273)"><path d="M181.171,554.353l.639,28.313,24.358-15.573Z" transform="translate(-181.171 -554.353)" stroke="#000" stroke-width="1"/></g></g></g></svg>