<?xml version="1.0" standalone="no"?>
<!DOCTYPE svg PUBLIC "-//W3C//DTD SVG 20010904//EN"
 "http://www.w3.org/TR/2001/REC-SVG-20010904/DTD/svg10.dtd">
<svg version="1.0" xmlns="http://www.w3.org/2000/svg"
 width="532.000000pt" height="532.000000pt" viewBox="0 0 532.000000 532.000000"
 preserveAspectRatio="xMidYMid meet">
<metadata>
Created by potrace 1.11, written by Peter Selinger 2001-2013
</metadata>
<g transform="translate(0.000000,532.000000) scale(0.100000,-0.100000)"
fill="#000000" stroke="none">
<path d="M3929 5315 c-3 -2 -33 -6 -69 -9 -36 -4 -83 -8 -105 -11 -43 -5 -118
-13 -200 -20 -27 -3 -63 -7 -80 -9 -16 -3 -64 -8 -105 -11 -41 -4 -86 -9 -100
-11 -24 -5 -50 -7 -177 -18 -35 -3 -75 -8 -90 -10 -16 -3 -59 -7 -98 -11 -38
-3 -83 -8 -100 -10 -31 -4 -71 -8 -286 -30 -31 -3 -65 -7 -75 -9 -11 -2 -56
-7 -101 -10 -45 -4 -90 -8 -100 -10 -10 -2 -54 -7 -98 -11 -44 -4 -93 -9 -110
-11 -43 -5 -117 -13 -177 -19 -29 -3 -69 -8 -88 -10 -19 -3 -60 -7 -90 -10
-68 -6 -141 -14 -200 -20 -25 -3 -72 -7 -105 -11 -33 -3 -71 -7 -85 -9 -14 -2
-54 -6 -90 -9 -36 -4 -81 -8 -100 -11 -19 -2 -60 -7 -90 -10 -30 -3 -71 -8
-90 -10 -19 -2 -64 -7 -100 -10 -36 -4 -78 -8 -95 -10 -16 -2 -59 -6 -95 -10
-36 -3 -76 -8 -90 -10 -14 -2 -61 -7 -105 -10 -44 -3 -87 -8 -95 -10 -8 -2
-49 -7 -90 -10 -108 -10 -112 -11 -143 -46 -28 -30 -29 -33 -22 -113 3 -44 8
-94 10 -109 2 -15 6 -60 10 -100 3 -40 8 -83 10 -97 3 -14 7 -47 9 -75 3 -27
8 -77 11 -110 4 -33 8 -76 11 -95 3 -19 7 -57 9 -85 2 -27 7 -72 10 -100 10
-81 13 -106 21 -180 3 -38 8 -83 10 -100 2 -16 6 -61 9 -100 3 -38 7 -77 10
-85 2 -8 7 -51 11 -95 4 -44 8 -93 10 -110 2 -16 6 -52 9 -80 5 -54 11 -115
20 -185 3 -25 7 -68 10 -96 2 -29 6 -65 9 -80 3 -16 8 -63 11 -104 3 -41 8
-86 10 -100 2 -14 7 -54 10 -90 3 -36 8 -83 10 -105 2 -22 7 -65 10 -95 3 -30
8 -73 10 -95 13 -111 17 -153 29 -280 5 -48 9 -85 22 -192 3 -27 7 -69 10 -95
2 -27 6 -69 9 -95 3 -27 7 -68 10 -93 2 -25 7 -70 10 -100 4 -30 8 -71 10 -90
2 -19 6 -57 9 -85 3 -27 8 -77 11 -110 3 -33 8 -78 11 -100 3 -22 7 -60 9 -85
2 -25 6 -67 10 -95 5 -49 9 -82 20 -195 3 -30 8 -66 10 -80 2 -14 6 -56 10
-95 6 -71 13 -135 20 -190 2 -16 6 -59 10 -95 14 -151 19 -169 60 -196 27 -17
98 -15 307 10 26 3 73 9 105 12 32 3 72 7 88 9 17 1 62 6 100 10 39 4 84 9
100 11 33 5 124 14 195 19 25 2 45 5 45 6 0 1 11 3 25 4 128 11 235 22 235 25
0 1 18 3 40 4 34 3 80 7 215 21 14 2 54 6 90 9 36 4 76 9 90 11 14 3 57 7 95
11 39 3 84 7 100 9 17 2 57 7 90 10 33 3 80 8 105 11 25 3 63 6 85 8 22 2 67
7 100 11 33 4 76 8 95 10 19 2 58 6 85 9 117 13 162 18 195 21 19 2 60 6 90 9
56 6 118 13 200 21 25 3 63 7 85 9 22 3 69 8 105 11 36 3 76 8 90 10 14 3 54
7 90 11 36 3 83 8 105 10 22 3 58 6 80 8 104 10 182 18 205 21 14 2 52 7 85
10 33 3 71 7 85 9 68 8 105 60 96 135 -4 25 -9 73 -12 106 -3 33 -7 71 -9 85
-5 42 -17 163 -20 195 -2 17 -6 59 -10 95 -3 36 -8 81 -10 100 -3 19 -7 60
-10 90 -4 30 -8 73 -11 95 -7 67 -13 127 -18 180 -2 28 -7 68 -10 90 -6 44
-16 145 -30 295 -3 30 -8 72 -11 94 -4 21 -8 57 -10 80 -4 49 -24 247 -30 296
-2 19 -7 62 -10 96 -3 33 -8 71 -10 85 -2 13 -7 58 -10 99 -4 41 -8 91 -10
110 -3 27 9 60 52 145 71 141 316 623 448 880 56 110 184 361 284 557 l181
357 -73 38 c-40 21 -122 63 -182 93 -61 30 -113 59 -116 63 -3 5 -9 8 -13 8
-3 -1 -37 15 -76 34 l-69 35 -38 -73 c-21 -40 -85 -167 -143 -282 -58 -116
-107 -212 -110 -215 -3 -3 -46 -86 -95 -185 -50 -99 -92 -182 -95 -185 -3 -3
-20 -36 -39 -73 -18 -37 -35 -66 -36 -65 -2 2 -6 35 -9 73 -4 39 -8 84 -10
100 -2 17 -6 65 -10 107 -4 42 -8 85 -10 95 -2 10 -7 54 -11 97 -4 43 -8 86
-10 95 -3 16 -10 89 -21 219 -3 37 -7 78 -10 92 -2 14 -7 54 -10 90 -2 36 -6
79 -8 95 -2 17 -7 62 -11 100 -4 39 -9 84 -11 100 -3 17 -6 50 -9 74 -2 25
-12 56 -23 70 -17 23 -75 55 -83 46z"/>
</g>
</svg>
